<svg xmlns="http://www.w3.org/2000/svg" viewBox="0 0 18 18">
  <defs>
    <style>
      .cls-1 {
        fill: #919191;
      }

      .cls-2 {
        fill: #fff;
      }
    </style>
  </defs>
  <g id="Cancel" transform="translate(-0.047)">
    <path id="Path_147" data-name="Path 147" class="cls-1" d="M9.038,0A9,9,0,1,1,.048,8.8,8.992,8.992,0,0,1,9.038,0Z" transform="translate(0)"/>
    <path id="Path_148" data-name="Path 148" class="cls-2" d="M208.63,209.26c-.814.844-1.563,1.627-2.32,2.4-.331.342-.671.675-1.015,1a.735.735,0,0,1-1.111.03.744.744,0,0,1,.1-1.061q1.509-1.515,3.033-3.018a3.3,3.3,0,0,1,.316-.25s-.222-.276-.314-.367c-1-1-1.995-2.008-2.99-3.011a.734.734,0,1,1,1.032-1.014q1.512,1.512,3.022,3.028a2.565,2.565,0,0,1,.22.3s.233-.22.318-.305q1.458-1.448,2.913-2.9c.5-.5.921-.575,1.249-.231s.263.786-.214,1.262c-1.044,1.051-2.087,2.106-3.159,3.184.07.077.15.167.233.252,1.019,1.029,2.042,2.055,3.056,3.09a.72.72,0,0,1-.235,1.254.792.792,0,0,1-.846-.29q-1.448-1.458-2.9-2.909C208.912,209.608,208.818,209.48,208.63,209.26Z" transform="translate(-199.603 -199.312)"/>
  </g>
</svg>
