<svg xmlns="http://www.w3.org/2000/svg" viewBox="-389 34.321 114.438 33.767">
  <defs>
    <style>
      .cls-1 {
        fill: #2d2d2d;
      }

      .cls-2 {
        fill: #30a84f;
      }

      .cls-3 {
        fill: #fff;
      }
    </style>
  </defs>
  <g id="engaze_well_His_Res_Logo" transform="translate(-389 34.321)">
    <g id="Group_2" data-name="Group 2" transform="translate(24.327 6.665)">
      <g id="Group_1" data-name="Group 1" transform="translate(0 0)">
        <path id="Path_1" data-name="Path 1" class="cls-1" d="M459.7,418.667v-15.36l11.294-.007v2.87h-8.222v3.281h6.159v2.863h-6.159v3.5h8.2v2.87H459.7Z" transform="translate(-459.7 -403.292)"/>
        <path id="Path_2" data-name="Path 2" class="cls-1" d="M652.2,418.667V403.3h1.024l9.634,9.634V403.3h3.072v15.375H664.8l-9.53-9.537v9.53Z" transform="translate(-637.812 -403.292)"/>
        <path id="Path_3" data-name="Path 3" class="cls-1" d="M869.7,416.462a7.688,7.688,0,0,1,5.471-13.162,8.3,8.3,0,0,1,5.643,2.048l-2.048,2.242a5.654,5.654,0,0,0-3.6-1.233,4.516,4.516,0,0,0-3.334,1.293,4.457,4.457,0,0,0-1.263,3.281,4.612,4.612,0,0,0,1.278,3.4A4.544,4.544,0,0,0,875.2,415.6a4.21,4.21,0,0,0,2.549-.658v-2.631l-2.048.008v-2.87h5.127v7.175a8.275,8.275,0,0,1-5.643,2.048A7.462,7.462,0,0,1,869.7,416.462Z" transform="translate(-837.02 -403.293)"/>
        <path id="Path_4" data-name="Path 4" class="cls-1" d="M1076.3,418.575l6.151-15.375h3.072l6.136,15.36-3.266.007-.919-2.354h-6.966l-.919,2.354H1076.3Zm7.766-11.271-2.339,5.837h4.612Z" transform="translate(-1030.213 -403.2)"/>
        <path id="Path_5" data-name="Path 5" class="cls-1" d="M1321.31,418.575H1309l.008-1.024,7.16-11.481h-7.16L1309,403.2h12.31v1.129l-7.19,11.376h7.19Z" transform="translate(-1245.52 -403.2)"/>
        <path id="Path_6" data-name="Path 6" class="cls-1" d="M1514.2,418.667v-15.36l11.294-.007v2.87h-8.222v3.281h6.159v2.863h-6.159v3.5h8.2v2.87H1514.2Z" transform="translate(-1435.383 -403.292)"/>
      </g>
    </g>
    <g id="Group_56" data-name="Group 56" transform="translate(0 0)">
      <g id="Group_54" data-name="Group 54" transform="translate(4.393 2.576)">
        <g id="Group_3" data-name="Group 3" transform="translate(8.894 8.08)">
          <path id="Path_7" data-name="Path 7" class="cls-2" d="M312.688,456.936a.344.344,0,0,1-.688,0,.341.341,0,0,1,.344-.336A.328.328,0,0,1,312.688,456.936Z" transform="translate(-312 -456.6)"/>
        </g>
        <g id="Group_4" data-name="Group 4" transform="translate(2.915 8.072)">
          <path id="Path_8" data-name="Path 8" class="cls-2" d="M232.688,456.825a.344.344,0,0,1-.688,0,.333.333,0,0,1,.351-.329A.316.316,0,0,1,232.688,456.825Z" transform="translate(-232 -456.496)"/>
        </g>
        <g id="Group_5" data-name="Group 5" transform="translate(9.582 4.694)">
          <path id="Path_9" data-name="Path 9" class="cls-2" d="M321.548,411.98a.345.345,0,0,1-.351-.344.348.348,0,0,1,.7.007A.352.352,0,0,1,321.548,411.98Z" transform="translate(-321.197 -411.3)"/>
        </g>
        <g id="Group_6" data-name="Group 6" transform="translate(9.709 8.715)">
          <path id="Path_10" data-name="Path 10" class="cls-2" d="M322.9,465.429a.337.337,0,0,1,.351-.329.332.332,0,0,1,.336.344.344.344,0,0,1-.688-.015Z" transform="translate(-322.896 -465.1)"/>
        </g>
        <g id="Group_7" data-name="Group 7" transform="translate(2.093 8.693)">
          <path id="Path_11" data-name="Path 11" class="cls-2" d="M221.351,465.473a.337.337,0,1,1,.344-.336A.332.332,0,0,1,221.351,465.473Z" transform="translate(-221 -464.8)"/>
        </g>
        <g id="Group_8" data-name="Group 8" transform="translate(9.051 3.632)">
          <path id="Path_12" data-name="Path 12" class="cls-2" d="M314.8,397.426a.328.328,0,0,1-.344.336.342.342,0,0,1-.351-.329.337.337,0,0,1,.344-.336A.328.328,0,0,1,314.8,397.426Z" transform="translate(-314.1 -397.096)"/>
        </g>
        <g id="Group_9" data-name="Group 9" transform="translate(3.005 1.943)">
          <path id="Path_13" data-name="Path 13" class="cls-2" d="M233.2,374.836a.344.344,0,0,1,.688,0,.343.343,0,0,1-.351.336A.33.33,0,0,1,233.2,374.836Z" transform="translate(-233.2 -374.5)"/>
        </g>
        <g id="Group_10" data-name="Group 10" transform="translate(7.13 2.22)">
          <path id="Path_14" data-name="Path 14" class="cls-2" d="M288.748,378.2a.326.326,0,0,1,.336.336.333.333,0,0,1-.351.329.328.328,0,0,1-.336-.344A.331.331,0,0,1,288.748,378.2Z" transform="translate(-288.396 -378.2)"/>
        </g>
        <g id="Group_11" data-name="Group 11" transform="translate(10.785 5.912)">
          <path id="Path_15" data-name="Path 15" class="cls-2" d="M337.644,428.273a.337.337,0,0,1-.344-.336.343.343,0,0,1,.351-.336.337.337,0,0,1,.344.336A.353.353,0,0,1,337.644,428.273Z" transform="translate(-337.3 -427.6)"/>
        </g>
        <g id="Group_12" data-name="Group 12" transform="translate(10.584 4.417)">
          <path id="Path_16" data-name="Path 16" class="cls-2" d="M334.951,407.6a.347.347,0,0,1,.351.329.352.352,0,1,1-.351-.329Z" transform="translate(-334.6 -407.6)"/>
        </g>
        <g id="Group_13" data-name="Group 13" transform="translate(11.824 5.957)">
          <path id="Path_17" data-name="Path 17" class="cls-2" d="M351.888,428.536a.337.337,0,0,1-.344.336.345.345,0,0,1-.344-.351.333.333,0,0,1,.359-.321A.324.324,0,0,1,351.888,428.536Z" transform="translate(-351.2 -428.2)"/>
        </g>
        <g id="Group_14" data-name="Group 14" transform="translate(1.33 7.384)">
          <path id="Path_18" data-name="Path 18" class="cls-2" d="M211.5,447.633a.333.333,0,0,1-.351.329.337.337,0,0,1-.344-.336.333.333,0,0,1,.351-.329A.328.328,0,0,1,211.5,447.633Z" transform="translate(-210.8 -447.296)"/>
        </g>
        <g id="Group_15" data-name="Group 15" transform="translate(5.92 2.026)">
          <path id="Path_19" data-name="Path 19" class="cls-2" d="M272.9,375.936a.337.337,0,0,1-.344.336.348.348,0,0,1-.351-.336.337.337,0,0,1,.344-.336A.343.343,0,0,1,272.9,375.936Z" transform="translate(-272.2 -375.6)"/>
        </g>
        <g id="Group_16" data-name="Group 16" transform="translate(4.387 1.248)">
          <path id="Path_20" data-name="Path 20" class="cls-2" d="M252.044,365.873a.337.337,0,0,1-.344-.336.343.343,0,0,1,.351-.336.337.337,0,0,1,.344.336A.348.348,0,0,1,252.044,365.873Z" transform="translate(-251.7 -365.2)"/>
        </g>
        <g id="Group_17" data-name="Group 17" transform="translate(9.911 3.05)">
          <path id="Path_21" data-name="Path 21" class="cls-2" d="M325.956,389.3a.335.335,0,0,1,.336.336.34.34,0,0,1-.359.336.337.337,0,0,1-.336-.344A.349.349,0,0,1,325.956,389.3Z" transform="translate(-325.597 -389.3)"/>
        </g>
        <g id="Group_18" data-name="Group 18" transform="translate(8.207 2.773)">
          <path id="Path_22" data-name="Path 22" class="cls-2" d="M303.5,385.944a.342.342,0,0,1-.351.329.353.353,0,0,1-.344-.344.342.342,0,0,1,.351-.329A.338.338,0,0,1,303.5,385.944Z" transform="translate(-302.8 -385.6)"/>
        </g>
        <g id="Group_19" data-name="Group 19" transform="translate(2.377 1.136)">
          <path id="Path_23" data-name="Path 23" class="cls-2" d="M225.144,364.369a.348.348,0,0,1-.344-.344.333.333,0,0,1,.351-.329.337.337,0,0,1,.344.336A.343.343,0,0,1,225.144,364.369Z" transform="translate(-224.8 -363.696)"/>
        </g>
        <g id="Group_20" data-name="Group 20" transform="translate(0.351 7.728)">
          <path id="Path_24" data-name="Path 24" class="cls-2" d="M198.4,452.244a.348.348,0,1,1-.344-.344A.338.338,0,0,1,198.4,452.244Z" transform="translate(-197.7 -451.9)"/>
        </g>
        <g id="Group_21" data-name="Group 21" transform="translate(5.927 1.009)">
          <path id="Path_25" data-name="Path 25" class="cls-2" d="M272.988,362.336a.344.344,0,1,1-.344-.336A.352.352,0,0,1,272.988,362.336Z" transform="translate(-272.3 -362)"/>
        </g>
        <g id="Group_22" data-name="Group 22" transform="translate(10.516 9.343)">
          <path id="Path_26" data-name="Path 26" class="cls-2" d="M334.4,473.836a.341.341,0,0,1-.344.336.337.337,0,1,1,.344-.336Z" transform="translate(-333.7 -473.5)"/>
        </g>
        <g id="Group_23" data-name="Group 23" transform="translate(1.241 4.387)">
          <path id="Path_27" data-name="Path 27" class="cls-2" d="M209.6,407.536a.341.341,0,0,1,.344-.336.348.348,0,0,1,.344.344.343.343,0,0,1-.351.336A.337.337,0,0,1,209.6,407.536Z" transform="translate(-209.6 -407.2)"/>
        </g>
        <g id="Group_24" data-name="Group 24" transform="translate(0.239 4.103)">
          <path id="Path_28" data-name="Path 28" class="cls-2" d="M196.2,403.736a.341.341,0,0,1,.344-.336.34.34,0,1,1-.007.68A.357.357,0,0,1,196.2,403.736Z" transform="translate(-196.2 -403.4)"/>
        </g>
        <g id="Group_25" data-name="Group 25" transform="translate(10.771 2.474)">
          <path id="Path_29" data-name="Path 29" class="cls-2" d="M337.451,382.273a.343.343,0,0,1-.351-.336.348.348,0,0,1,.351-.336.342.342,0,0,1,.351.329A.349.349,0,0,1,337.451,382.273Z" transform="translate(-337.1 -381.6)"/>
        </g>
        <g id="Group_26" data-name="Group 26" transform="translate(10.479 7.4)">
          <path id="Path_30" data-name="Path 30" class="cls-2" d="M333.551,448.165a.342.342,0,0,1-.351-.329.352.352,0,0,1,.7,0A.352.352,0,0,1,333.551,448.165Z" transform="translate(-333.2 -447.5)"/>
        </g>
        <g id="Group_27" data-name="Group 27" transform="translate(2.773 3.617)">
          <path id="Path_31" data-name="Path 31" class="cls-2" d="M230.444,397.562a.333.333,0,1,1,.015-.665.333.333,0,1,1-.015.665Z" transform="translate(-230.1 -396.897)"/>
        </g>
        <g id="Group_28" data-name="Group 28" transform="translate(1.921 3.035)">
          <path id="Path_32" data-name="Path 32" class="cls-2" d="M219.041,389.773a.337.337,0,0,1-.344-.336.343.343,0,0,1,.351-.336.353.353,0,0,1,.351.336A.365.365,0,0,1,219.041,389.773Z" transform="translate(-218.697 -389.1)"/>
        </g>
        <g id="Group_29" data-name="Group 29" transform="translate(9.5 7.041)">
          <path id="Path_33" data-name="Path 33" class="cls-2" d="M320.1,443.033a.337.337,0,0,1,.344-.336.34.34,0,1,1,0,.68A.353.353,0,0,1,320.1,443.033Z" transform="translate(-320.1 -442.697)"/>
        </g>
        <g id="Group_30" data-name="Group 30" transform="translate(2.31 7.018)">
          <path id="Path_34" data-name="Path 34" class="cls-2" d="M224.6,442.744a.343.343,0,0,1-.351.336.348.348,0,0,1-.344-.344.343.343,0,0,1,.351-.336A.348.348,0,0,1,224.6,442.744Z" transform="translate(-223.9 -442.4)"/>
        </g>
        <g id="Group_31" data-name="Group 31" transform="translate(4.059 0.284)">
          <path id="Path_35" data-name="Path 35" class="cls-2" d="M247.3,352.636a.341.341,0,0,1,.344-.336.332.332,0,0,1,.344.336.348.348,0,0,1-.351.336A.33.33,0,0,1,247.3,352.636Z" transform="translate(-247.3 -352.3)"/>
        </g>
        <g id="Group_32" data-name="Group 32" transform="translate(1.039 5.89)">
          <path id="Path_36" data-name="Path 36" class="cls-2" d="M207.251,427.3a.337.337,0,0,1,.344.336.353.353,0,0,1-.351.336.348.348,0,0,1-.344-.344A.342.342,0,0,1,207.251,427.3Z" transform="translate(-206.9 -427.3)"/>
        </g>
        <g id="Group_33" data-name="Group 33" transform="translate(11.592 4.126)">
          <path id="Path_37" data-name="Path 37" class="cls-2" d="M348.441,404.373a.341.341,0,0,1-.344-.336.353.353,0,0,1,.351-.336.337.337,0,1,1-.007.673Z" transform="translate(-348.097 -403.7)"/>
        </g>
        <g id="Group_34" data-name="Group 34" transform="translate(9.47 1.151)">
          <path id="Path_38" data-name="Path 38" class="cls-2" d="M319.7,364.233a.337.337,0,0,1,.344-.336.34.34,0,1,1-.344.336Z" transform="translate(-319.7 -363.897)"/>
        </g>
        <g id="Group_35" data-name="Group 35" transform="translate(11.451 7.751)">
          <path id="Path_39" data-name="Path 39" class="cls-2" d="M346.551,452.873a.348.348,0,0,1-.351-.336.348.348,0,0,1,.7,0A.337.337,0,0,1,346.551,452.873Z" transform="translate(-346.2 -452.2)"/>
        </g>
        <g id="Group_36" data-name="Group 36" transform="translate(8.842 1.958)">
          <path id="Path_40" data-name="Path 40" class="cls-2" d="M311.984,375.051a.335.335,0,0,1-.344.329.34.34,0,0,1-.344-.351.344.344,0,0,1,.688.022Z" transform="translate(-311.297 -374.7)"/>
        </g>
        <g id="Group_37" data-name="Group 37" transform="translate(7.983 8.872)">
          <path id="Path_41" data-name="Path 41" class="cls-2" d="M300.5,467.536a.348.348,0,0,1-.7-.008.331.331,0,0,1,.344-.329A.339.339,0,0,1,300.5,467.536Z" transform="translate(-299.8 -467.2)"/>
        </g>
        <g id="Group_38" data-name="Group 38" transform="translate(2.242 4.679)">
          <path id="Path_42" data-name="Path 42" class="cls-2" d="M223,411.441a.348.348,0,0,1,.344-.344.34.34,0,1,1,.007.68A.348.348,0,0,1,223,411.441Z" transform="translate(-223 -411.097)"/>
        </g>
        <g id="Group_39" data-name="Group 39" transform="translate(4.716 2.212)">
          <path id="Path_43" data-name="Path 43" class="cls-2" d="M256.788,378.441a.344.344,0,1,1-.336-.344A.337.337,0,0,1,256.788,378.441Z" transform="translate(-256.1 -378.097)"/>
        </g>
        <g id="Group_40" data-name="Group 40" transform="translate(9.732 5.89)">
          <path id="Path_44" data-name="Path 44" class="cls-2" d="M323.551,427.965a.359.359,0,0,1-.351-.336.347.347,0,0,1,.351-.329.332.332,0,0,1,.344.336A.345.345,0,0,1,323.551,427.965Z" transform="translate(-323.2 -427.3)"/>
        </g>
        <g id="Group_41" data-name="Group 41" transform="translate(5.927)">
          <path id="Path_45" data-name="Path 45" class="cls-2" d="M272.641,348.5a.348.348,0,0,1,.351.336.341.341,0,0,1-.344.336.348.348,0,0,1-.351-.336A.332.332,0,0,1,272.641,348.5Z" transform="translate(-272.297 -348.5)"/>
        </g>
        <g id="Group_42" data-name="Group 42" transform="translate(0 5.919)">
          <path id="Path_46" data-name="Path 46" class="cls-2" d="M193,428.033a.337.337,0,0,1,.344-.336.348.348,0,0,1,.344.344.344.344,0,0,1-.688-.007Z" transform="translate(-193 -427.697)"/>
        </g>
        <g id="Group_43" data-name="Group 43" transform="translate(7.459 1.255)">
          <path id="Path_47" data-name="Path 47" class="cls-2" d="M292.8,365.633a.341.341,0,0,1,.344-.336.34.34,0,1,1-.344.336Z" transform="translate(-292.8 -365.297)"/>
        </g>
        <g id="Group_44" data-name="Group 44" transform="translate(3.625 2.766)">
          <path id="Path_48" data-name="Path 48" class="cls-2" d="M241.851,385.5a.337.337,0,1,1,0,.673.353.353,0,0,1-.351-.336A.343.343,0,0,1,241.851,385.5Z" transform="translate(-241.5 -385.5)"/>
        </g>
        <g id="Group_45" data-name="Group 45" transform="translate(3.266 9.724)">
          <path id="Path_49" data-name="Path 49" class="cls-2" d="M236.7,478.929a.348.348,0,0,1,.7,0,.348.348,0,0,1-.7,0Z" transform="translate(-236.7 -478.6)"/>
        </g>
        <g id="Group_46" data-name="Group 46" transform="translate(2.078 5.86)">
          <path id="Path_50" data-name="Path 50" class="cls-2" d="M221.5,427.24a.337.337,0,0,1-.351.329.358.358,0,0,1-.344-.344.343.343,0,0,1,.359-.329A.336.336,0,0,1,221.5,427.24Z" transform="translate(-220.8 -426.896)"/>
        </g>
        <g id="Group_47" data-name="Group 47" transform="translate(7.788 0.291)">
          <path id="Path_51" data-name="Path 51" class="cls-2" d="M297.544,353.073a.337.337,0,0,1-.344-.336.348.348,0,0,1,.7,0A.338.338,0,0,1,297.544,353.073Z" transform="translate(-297.2 -352.4)"/>
        </g>
        <g id="Group_48" data-name="Group 48" transform="translate(1.061 2.452)">
          <path id="Path_52" data-name="Path 52" class="cls-2" d="M207.544,381.973a.337.337,0,1,1,.007-.673.337.337,0,0,1,.344.336A.343.343,0,0,1,207.544,381.973Z" transform="translate(-207.2 -381.3)"/>
        </g>
        <g id="Group_49" data-name="Group 49" transform="translate(3.819 8.872)">
          <path id="Path_53" data-name="Path 53" class="cls-2" d="M244.459,467.2a.331.331,0,0,1,.344.329.353.353,0,0,1-.351.336.359.359,0,0,1-.351-.336A.349.349,0,0,1,244.459,467.2Z" transform="translate(-244.1 -467.2)"/>
        </g>
        <g id="Group_50" data-name="Group 50" transform="translate(1.286 9.328)">
          <path id="Path_54" data-name="Path 54" class="cls-2" d="M210.544,473.973a.337.337,0,0,1-.344-.336.341.341,0,0,1,.344-.336.337.337,0,0,1,.344.336A.332.332,0,0,1,210.544,473.973Z" transform="translate(-210.2 -473.3)"/>
        </g>
        <g id="Group_51" data-name="Group 51" transform="translate(2.691 10.569)">
          <path id="Path_55" data-name="Path 55" class="cls-2" d="M229.351,490.573a.348.348,0,0,1-.351-.336.352.352,0,0,1,.344-.336.342.342,0,0,1,.351.329A.338.338,0,0,1,229.351,490.573Z" transform="translate(-229 -489.9)"/>
        </g>
        <g id="Group_52" data-name="Group 52" transform="translate(9.111 10.576)">
          <path id="Path_56" data-name="Path 56" class="cls-2" d="M315.6,490.329a.343.343,0,0,1-.344.344.358.358,0,0,1-.351-.336.348.348,0,0,1,.7-.007Z" transform="translate(-314.9 -490)"/>
        </g>
        <g id="Group_53" data-name="Group 53" transform="translate(8.551 9.724)">
          <path id="Path_57" data-name="Path 57" class="cls-2" d="M307.744,479.265a.337.337,0,0,1-.344-.336.331.331,0,0,1,.344-.329.343.343,0,0,1,.351.336A.332.332,0,0,1,307.744,479.265Z" transform="translate(-307.4 -478.6)"/>
        </g>
      </g>
      <g id="Group_55" data-name="Group 55" transform="translate(0 0)">
        <path id="Path_58" data-name="Path 58" class="cls-2" d="M134.737,328.223a1.4,1.4,0,0,0,.4.045c.329.007.658,0,1,0v4.126a1.8,1.8,0,0,0,.082.568,1.519,1.519,0,0,0,1.45,1.039h3.139v2.22h10.681c-.03-.224-.052-2.257-.052-2.5-.015-1.7-.007-3.393,0-5.09a.49.49,0,0,1,.1-.284,8.579,8.579,0,0,0,1.884-7.168,8.325,8.325,0,0,0-3.154-5.232,8.711,8.711,0,0,0-14.149,6.5,6.172,6.172,0,0,1-.733,2.788c-.336.62-.7,1.226-1.039,1.831A.77.77,0,0,0,134.737,328.223Zm10.12-12.3a6.828,6.828,0,1,1-6.817,6.832A6.843,6.843,0,0,1,144.857,315.92Z" transform="translate(-134.231 -314.031)"/>
      </g>
    </g>
    <g id="Group_57" data-name="Group 57" transform="translate(70.668 23.736)">
      <path id="Path_59" data-name="Path 59" class="cls-2" d="M1108.588,641.631h-28.156a.734.734,0,0,1-.733-.733v-8.566a.734.734,0,0,1,.733-.733h28.276a.616.616,0,0,1,.613.613V640.9A.734.734,0,0,1,1108.588,641.631Z" transform="translate(-1079.7 -631.6)"/>
    </g>
    <g id="Group_58" data-name="Group 58" transform="translate(75.773 26.27)">
      <path id="Path_60" data-name="Path 60" class="cls-3" d="M1155.258,665.5l-1.615,5.172h-.628l-1.308-3.947c-.015-.037-.022-.082-.037-.12a.889.889,0,0,0-.037-.135c-.015.045-.022.1-.037.135s-.022.082-.037.12l-1.315,3.947h-.628L1148,665.5h.583a.277.277,0,0,1,.157.045.2.2,0,0,1,.082.12l1.069,3.6c.015.067.03.135.052.209s.03.157.045.239c.015-.082.038-.165.052-.239a1.7,1.7,0,0,1,.06-.209l1.218-3.6a.29.29,0,0,1,.082-.112.222.222,0,0,1,.157-.052h.2a.238.238,0,0,1,.15.045.3.3,0,0,1,.09.12l1.211,3.6a1.268,1.268,0,0,1,.06.2c.015.075.038.149.052.224.015-.082.022-.157.037-.224s.03-.142.045-.2l1.069-3.6a.2.2,0,0,1,.082-.112.223.223,0,0,1,.157-.052Z" transform="translate(-1148 -665.5)"/>
      <path id="Path_61" data-name="Path 61" class="cls-3" d="M1264.684,670.1v.568H1261.5V665.5h3.184v.568H1262.2v1.719h2.011v.546H1262.2V670.1h2.489Z" transform="translate(-1253.017 -665.5)"/>
      <path id="Path_62" data-name="Path 62" class="cls-3" d="M1326.137,670.082v.59H1323.2V665.5h.7v4.582Z" transform="translate(-1310.105 -665.5)"/>
      <path id="Path_63" data-name="Path 63" class="cls-3" d="M1381.637,670.082v.59H1378.7V665.5h.7v4.582Z" transform="translate(-1361.457 -665.5)"/>
    </g>
    <g id="Group_59" data-name="Group 59" transform="translate(72.222 28.094)">
      <circle id="Ellipse_1" data-name="Ellipse 1" class="cls-3" cx="0.658" cy="0.658" r="0.658" transform="translate(0 0)"/>
    </g>
    <g id="Group_60" data-name="Group 60" transform="translate(97.411 28.094)">
      <circle id="Ellipse_2" data-name="Ellipse 2" class="cls-3" cx="0.658" cy="0.658" r="0.658" transform="translate(0 0)"/>
    </g>
  </g>
</svg>
