<svg id="ic_call_black_24px_1_" data-name="ic_call_black_24px (1)" xmlns="http://www.w3.org/2000/svg" viewBox="0 0 16 16">
  <defs>
    <style>
      .cls-1 {
        fill: none;
      }

      .cls-2 {
        fill: #ffb833;
      }
    </style>
  </defs>
  <path id="Path_117" data-name="Path 117" class="cls-1" d="M0,0H16V16H0Z"/>
  <path id="Path_118" data-name="Path 118" class="cls-2" d="M5.413,8.193a10.1,10.1,0,0,0,4.393,4.393l1.467-1.467a.663.663,0,0,1,.68-.16,7.6,7.6,0,0,0,2.38.38.669.669,0,0,1,.667.667v2.327a.669.669,0,0,1-.667.667A11.332,11.332,0,0,1,3,3.667.669.669,0,0,1,3.667,3H6a.669.669,0,0,1,.667.667,7.574,7.574,0,0,0,.38,2.38.669.669,0,0,1-.167.68Z" transform="translate(-1 -1)"/>
</svg>
