<svg xmlns="http://www.w3.org/2000/svg" viewBox="-696 306 12 12">
  <defs>
    <style>
      .cls-1 {
        fill: none;
      }

      .cls-2 {
        fill: #ffcb69;
      }
    </style>
  </defs>
  <g id="ic_call_black_24px" transform="translate(-696 306)">
    <path id="Path_105" data-name="Path 105" class="cls-1" d="M0,0H12V12H0Z"/>
    <path id="Path_106" data-name="Path 106" class="cls-2" d="M4.81,6.895A7.574,7.574,0,0,0,8.1,10.19l1.1-1.1a.5.5,0,0,1,.51-.12,5.7,5.7,0,0,0,1.785.285.5.5,0,0,1,.5.5V11.5a.5.5,0,0,1-.5.5A8.5,8.5,0,0,1,3,3.5.5.5,0,0,1,3.5,3H5.25a.5.5,0,0,1,.5.5,5.68,5.68,0,0,0,.285,1.785.5.5,0,0,1-.125.51Z" transform="translate(-1.5 -1.5)"/>
  </g>
</svg>
