<svg xmlns="http://www.w3.org/2000/svg" viewBox="-313 445 24 24">
  <defs>
    <style>
      .cls-1 {
        fill: #ffcb69;
      }

      .cls-2 {
        fill: none;
      }
    </style>
  </defs>
  <g id="ic_date_range_black_24px" transform="translate(-313 445)">
    <path id="Path_120" data-name="Path 120" class="cls-1" d="M9,11H7v2H9Zm4,0H11v2h2Zm4,0H15v2h2Zm2-7H18V2H16V4H8V2H6V4H5A1.991,1.991,0,0,0,3.01,6L3,20a2,2,0,0,0,2,2H19a2.006,2.006,0,0,0,2-2V6A2.006,2.006,0,0,0,19,4Zm0,16H5V9H19Z"/>
    <path id="Path_121" data-name="Path 121" class="cls-2" d="M0,0H24V24H0Z"/>
  </g>
</svg>
