<svg xmlns="http://www.w3.org/2000/svg" viewBox="-845 716 16 16">
  <defs>
    <style>
      .cls-1 {
        fill: none;
      }

      .cls-2 {
        fill: #919191;
      }
    </style>
  </defs>
  <g id="ic_help_black_24px_1_" data-name="ic_help_black_24px (1)" transform="translate(-845 716)">
    <path id="Path_79" data-name="Path 79" class="cls-1" d="M0,0H16V16H0Z"/>
    <path id="Path_80" data-name="Path 80" class="cls-2" d="M8.667,2a6.667,6.667,0,1,0,6.667,6.667A6.669,6.669,0,0,0,8.667,2Zm.667,11.333H8V12H9.333Zm1.38-5.167-.6.613a2.27,2.27,0,0,0-.78,1.887H8v-.333a2.683,2.683,0,0,1,.78-1.887l.827-.84A1.3,1.3,0,0,0,10,6.667a1.333,1.333,0,0,0-2.667,0H6a2.667,2.667,0,0,1,5.333,0A2.121,2.121,0,0,1,10.713,8.167Z" transform="translate(-0.667 -0.667)"/>
  </g>
</svg>
