<svg xmlns="http://www.w3.org/2000/svg" viewBox="-845.299 651.701 16 16">
  <defs>
    <style>
      .cls-1 {
        fill: none;
      }

      .cls-2 {
        fill: #919191;
      }
    </style>
  </defs>
  <g id="ic_shopping_basket_black_24px" transform="translate(-845.299 651.701)">
    <path id="Path_77" data-name="Path 77" class="cls-1" d="M0,0H16V16H0Z"/>
    <path id="Path_78" data-name="Path 78" class="cls-2" d="M11.807,6.673,8.887,2.3a.662.662,0,0,0-.553-.28.652.652,0,0,0-.553.287L4.86,6.673H1.667A.669.669,0,0,0,1,7.34a.562.562,0,0,0,.027.18L2.72,13.7A1.326,1.326,0,0,0,4,14.673h8.667a1.34,1.34,0,0,0,1.287-.973l1.693-6.18.02-.18A.669.669,0,0,0,15,6.673Zm-5.473,0,2-2.933,2,2.933Zm2,5.333a1.333,1.333,0,1,1,1.333-1.333A1.337,1.337,0,0,1,8.333,12.007Z" transform="translate(-0.333 -0.673)"/>
  </g>
</svg>
