<svg xmlns="http://www.w3.org/2000/svg" viewBox="-167 278 12 12">
  <defs>
    <style>
      .cls-1 {
        fill: none;
      }

      .cls-2 {
        fill: #ffcb69;
      }
    </style>
  </defs>
  <g id="ic_work_black_24px" transform="translate(-167 278)">
    <path id="Path_75" data-name="Path 75" class="cls-1" d="M0,0H12V12H0Z"/>
    <path id="Path_76" data-name="Path 76" class="cls-2" d="M11,4H9V3A1,1,0,0,0,8,2H6A1,1,0,0,0,5,3V4H3a.992.992,0,0,0-.995,1L2,10.5a1,1,0,0,0,1,1h8a1,1,0,0,0,1-1V5A1,1,0,0,0,11,4ZM8,4H6V3H8Z" transform="translate(-1 -1)"/>
  </g>
</svg>
