<svg xmlns="http://www.w3.org/2000/svg" viewBox="-845 277 16 16">
  <defs>
    <style>
      .cls-1 {
        fill: none;
      }

      .cls-2 {
        fill: #919191;
      }
    </style>
  </defs>
  <g id="ic_work_black_24px" transform="translate(-845 277)">
    <path id="Path_75" data-name="Path 75" class="cls-1" d="M0,0H16V16H0Z"/>
    <path id="Path_76" data-name="Path 76" class="cls-2" d="M14,4.667H11.333V3.333A1.329,1.329,0,0,0,10,2H7.333A1.329,1.329,0,0,0,6,3.333V4.667H3.333A1.323,1.323,0,0,0,2.007,6L2,13.333a1.329,1.329,0,0,0,1.333,1.333H14a1.329,1.329,0,0,0,1.333-1.333V6A1.329,1.329,0,0,0,14,4.667Zm-4,0H7.333V3.333H10Z" transform="translate(-0.667 -0.667)"/>
  </g>
</svg>
