<svg xmlns="http://www.w3.org/2000/svg" xmlns:xlink="http://www.w3.org/1999/xlink" viewBox="0 0 33 43">
  <defs>
    <style>
      .cls-1 {
        fill: #19a844;
      }

      .cls-2 {
        fill: #fff;
      }

      .cls-3 {
        filter: url(#Rectangle_142);
      }
    </style>
    <filter id="Rectangle_142" x="0" y="0" width="33" height="43" filterUnits="userSpaceOnUse">
      <feOffset dy="2" input="SourceAlpha"/>
      <feGaussianBlur stdDeviation="1.5" result="blur"/>
      <feFlood flood-color="#ababab" flood-opacity="0.188"/>
      <feComposite operator="in" in2="blur"/>
      <feComposite in="SourceGraphic"/>
    </filter>
  </defs>
  <g id="Group_258" data-name="Group 258" transform="translate(-621.5 -211.5)">
    <g class="cls-3" transform="matrix(1, 0, 0, 1, 621.5, 211.5)">
      <path id="Rectangle_142-2" data-name="Rectangle 142" class="cls-1" d="M0,0H24a0,0,0,0,1,0,0V22A12,12,0,0,1,12,34h0A12,12,0,0,1,0,22V0A0,0,0,0,1,0,0Z" transform="translate(4.5 2.5)"/>
    </g>
    <path id="Path_145" data-name="Path 145" class="cls-2" d="M11.6,13.33c-.039-.173-.084-.394-.136-.614-.247-1.062-.489-2.127-.742-3.189a.765.765,0,0,1,.238-.8c.933-.859,1.863-1.722,2.8-2.579a.759.759,0,0,0,.273-.733.67.67,0,0,0-.635-.558l-3.15-.312c-.214-.022-.43-.041-.644-.065A.675.675,0,0,1,9.022,4Q8.39,2.363,7.754.731C7.721.649,7.69.565,7.653.482A.613.613,0,0,0,7.075.089a.593.593,0,0,0-.6.374c-.167.387-.317.781-.471,1.173q-.463,1.178-.923,2.356a.7.7,0,0,1-.639.489c-.765.069-1.528.151-2.29.227-.471.048-.942.1-1.412.138A.694.694,0,0,0,.052,5.5a.677.677,0,0,0,.238.612q.45.412.9.829c.646.6,1.291,1.2,1.939,1.791a.756.756,0,0,1,.236.785c-.284,1.22-.559,2.443-.839,3.663a.708.708,0,0,0,.5.894.66.66,0,0,0,.51-.108c.4-.251.808-.5,1.213-.751q.95-.587,1.9-1.179a.7.7,0,0,1,.8,0c1.028.64,2.06,1.274,3.088,1.915a.654.654,0,0,0,.681.074A.738.738,0,0,0,11.6,13.33Z" transform="translate(630.954 226.879)"/>
  </g>
</svg>
