<svg xmlns="http://www.w3.org/2000/svg" viewBox="0 0 10.816 12.126">
  <defs>
    <style>
      .cls-1 {
        fill: #fff;
      }
    </style>
  </defs>
  <path id="Path_115" data-name="Path 115" class="cls-1" d="M1.14,12.1c.451-.7.9-1.388,1.361-2.1-.192-.152-.375-.286-.549-.437A5.229,5.229,0,0,1,.087,4.663,5.144,5.144,0,0,1,3.778.3a5.357,5.357,0,0,1,6.861,3.723,5.382,5.382,0,0,1-3.62,6.566c-1.455.442-2.937.795-4.41,1.187l-1.415.375A.535.535,0,0,0,1.14,12.1Zm4.406-7.99H7.617c.616,0,.607,0,.62-.612,0-.237-.08-.281-.295-.281-1.33.009-2.66,0-3.991,0-.3,0-.612,0-.915,0-.134,0-.187.049-.179.183a2.485,2.485,0,0,1,0,.446c-.022.205.045.268.254.268C3.926,4.11,4.734,4.114,5.546,4.114Zm0,1.652H7.613c.62,0,.607,0,.625-.612,0-.237-.076-.286-.295-.281-1.241.009-2.482,0-3.723,0-.393,0-.786,0-1.183,0-.134,0-.187.045-.183.183a2.485,2.485,0,0,1,0,.446c-.031.228.071.268.277.268C3.939,5.762,4.738,5.766,5.541,5.766ZM4.327,7.493c.4,0,.8-.009,1.205,0,.2.009.268-.067.25-.259a2.415,2.415,0,0,1,0-.4C5.8,6.663,5.729,6.6,5.555,6.6c-.812,0-1.62,0-2.433,0-.165,0-.254.045-.237.228a2.98,2.98,0,0,1,0,.446c-.009.161.049.223.219.223C3.511,7.484,3.921,7.493,4.327,7.493Z" transform="translate(-0.021 -0.027)"/>
</svg>
