<svg xmlns="http://www.w3.org/2000/svg" viewBox="0 0 18.475 19.954">
  <defs>
    <style>
      .cls-1 {
        fill: #919191;
      }
    </style>
  </defs>
  <g id="Reschedule" transform="translate(-0.043 -0.035)">
    <path id="Path_149" data-name="Path 149" class="cls-1" d="M9.548,1.353c0-.22,0-.46,0-.7A.551.551,0,0,1,9.841.1a.56.56,0,0,1,.632.067q1.233.884,2.468,1.773a.546.546,0,0,1,.007.934c-.824.6-1.654,1.189-2.48,1.783a.56.56,0,0,1-.647.047.551.551,0,0,1-.27-.527c0-.342,0-.684,0-1.052-.545.057-1.077.07-1.591.175a7.282,7.282,0,0,0-5.548,4.5,7.405,7.405,0,0,0,1.773,8.31,7.227,7.227,0,0,0,5.493,2.041,7.468,7.468,0,0,0,7.006-6.02.909.909,0,0,1,1.079-.727.883.883,0,0,1,.672,1.077,9.007,9.007,0,0,1-6.474,7.071,8.875,8.875,0,0,1-8.775-1.936,8.743,8.743,0,0,1-3.06-5.718A9.062,9.062,0,0,1,3.161,3.723,8.981,8.981,0,0,1,8.082,1.463C8.557,1.393,9.044,1.388,9.548,1.353Z" transform="translate(0 0)"/>
    <path id="Path_150" data-name="Path 150" class="cls-1" d="M182.293,240.431A4.745,4.745,0,1,1,187,245.184,4.736,4.736,0,0,1,182.293,240.431Zm4.169-1.069c0,.4,0,.8,0,1.2a.292.292,0,0,0,.075.19q.8.813,1.609,1.611a.607.607,0,0,0,.24.145.56.56,0,0,0,.644-.242.546.546,0,0,0-.062-.7c-.415-.43-.842-.844-1.256-1.274a.364.364,0,0,1-.095-.23c-.007-.607,0-1.214-.005-1.823a.578.578,0,1,0-1.152-.01Z" transform="translate(-177.698 -229.778)"/>
    <path id="Path_151" data-name="Path 151" class="cls-1" d="M550.7,132.693a.9.9,0,1,1-.01-1.793.888.888,0,0,1,.9.9A.9.9,0,0,1,550.7,132.693Z" transform="translate(-536.025 -127.596)"/>
    <path id="Path_152" data-name="Path 152" class="cls-1" d="M627.8,223.888a.9.9,0,0,1,.909-.892.92.92,0,0,1,.882.907.9.9,0,0,1-1.791-.015Z" transform="translate(-612.073 -217.392)"/>
    <path id="Path_153" data-name="Path 153" class="cls-1" d="M668.895,338.393a.887.887,0,0,1-.9-.892.9.9,0,1,1,.9.892Z" transform="translate(-651.266 -328.158)"/>
  </g>
</svg>
